<svg xmlns="http://www.w3.org/2000/svg" xmlns:xlink="http://www.w3.org/1999/xlink" width="40" zoomAndPan="magnify" viewBox="0 0 30 30.000001" height="40" preserveAspectRatio="xMidYMid meet" version="1.0"><defs><clipPath id="id1"><path d="M 0.484375 0 L 29.515625 0 L 29.515625 20.324219 L 0.484375 20.324219 Z M 0.484375 0 " clip-rule="nonzero"/></clipPath></defs><g clip-path="url(#id1)"><path fill="#ffffff" d="M 28.644531 9.039062 L 15.757812 0.277344 C 15.339844 -0.0078125 14.789062 -0.0390625 14.335938 0.195312 C 13.882812 0.429688 13.601562 0.894531 13.601562 1.398438 L 13.601562 7.542969 L 2.917969 0.277344 C 2.496094 -0.0078125 1.945312 -0.0390625 1.496094 0.195312 C 1.042969 0.429688 0.757812 0.894531 0.757812 1.398438 L 0.757812 18.925781 C 0.757812 19.429688 1.042969 19.894531 1.496094 20.128906 C 1.695312 20.234375 1.914062 20.285156 2.136719 20.285156 C 2.410156 20.285156 2.683594 20.203125 2.917969 20.042969 L 13.601562 12.78125 L 13.601562 18.921875 C 13.601562 19.429688 13.882812 19.894531 14.335938 20.128906 C 14.539062 20.234375 14.757812 20.285156 14.976562 20.285156 C 15.253906 20.285156 15.527344 20.203125 15.757812 20.042969 L 28.644531 11.28125 C 29.019531 11.027344 29.242188 10.609375 29.242188 10.160156 C 29.242188 9.714844 29.019531 9.292969 28.644531 9.039062 Z M 3.515625 16.335938 L 3.515625 3.988281 L 12.59375 10.160156 Z M 16.355469 16.335938 L 16.355469 3.988281 L 25.433594 10.160156 Z M 16.355469 16.335938 " fill-opacity="1" fill-rule="nonzero"/></g></svg>