<svg xmlns="http://www.w3.org/2000/svg" xmlns:xlink="http://www.w3.org/1999/xlink" width="40" zoomAndPan="magnify" viewBox="0 0 30 30.000001" height="40" preserveAspectRatio="xMidYMid meet" version="1.0"><defs><clipPath id="id1"><path d="M 15 0 L 29.515625 0 L 29.515625 22.5 L 15 22.5 Z M 15 0 " clip-rule="nonzero"/></clipPath><clipPath id="id2"><path d="M 0.484375 0 L 15 0 L 15 22.5 L 0.484375 22.5 Z M 0.484375 0 " clip-rule="nonzero"/></clipPath></defs><g clip-path="url(#id1)"><path fill="#ffffff" d="M 28.101562 22.5 C 27.757812 22.5 27.453125 22.382812 27.195312 22.152344 L 16.160156 12.339844 C 16.011719 12.207031 15.894531 12.046875 15.8125 11.863281 C 15.730469 11.679688 15.691406 11.488281 15.691406 11.285156 C 15.691406 11.082031 15.730469 10.890625 15.8125 10.707031 C 15.894531 10.523438 16.011719 10.363281 16.160156 10.230469 L 27.195312 0.417969 C 27.398438 0.234375 27.632812 0.125 27.902344 0.0859375 C 28.167969 0.046875 28.425781 0.0820312 28.671875 0.195312 C 28.917969 0.308594 29.117188 0.480469 29.261719 0.710938 C 29.410156 0.945312 29.480469 1.195312 29.480469 1.472656 L 29.480469 21.097656 C 29.480469 21.285156 29.445312 21.460938 29.378906 21.632812 C 29.308594 21.804688 29.207031 21.957031 29.078125 22.089844 C 28.949219 22.222656 28.800781 22.320312 28.628906 22.394531 C 28.460938 22.464844 28.285156 22.5 28.101562 22.5 Z M 19.164062 11.285156 L 26.722656 18.007812 L 26.722656 4.5625 Z M 19.164062 11.285156 " fill-opacity="1" fill-rule="nonzero"/></g><g clip-path="url(#id2)"><path fill="#ffffff" d="M 12.929688 22.5 C 12.585938 22.5 12.28125 22.382812 12.023438 22.152344 L 0.988281 12.339844 C 0.839844 12.207031 0.722656 12.046875 0.640625 11.863281 C 0.558594 11.679688 0.519531 11.488281 0.519531 11.285156 C 0.519531 11.082031 0.558594 10.890625 0.640625 10.707031 C 0.722656 10.523438 0.839844 10.363281 0.988281 10.230469 L 12.023438 0.417969 C 12.226562 0.234375 12.460938 0.125 12.730469 0.0859375 C 12.996094 0.046875 13.253906 0.0820312 13.5 0.195312 C 13.746094 0.308594 13.945312 0.480469 14.089844 0.710938 C 14.238281 0.945312 14.308594 1.195312 14.308594 1.472656 L 14.308594 21.097656 C 14.308594 21.285156 14.273438 21.460938 14.207031 21.632812 C 14.136719 21.804688 14.035156 21.957031 13.90625 22.089844 C 13.777344 22.222656 13.628906 22.320312 13.457031 22.394531 C 13.289062 22.464844 13.113281 22.5 12.929688 22.5 Z M 3.992188 11.285156 L 11.550781 18.007812 L 11.550781 4.5625 Z M 3.992188 11.285156 " fill-opacity="1" fill-rule="nonzero"/></g></svg>